<?xml version="1.0" encoding="UTF-8"?>
<svg id="Layer_2" xmlns="http://www.w3.org/2000/svg" version="1.1" viewBox="0 0 375.8 101.8">
  <!-- Generator: Adobe Illustrator 29.2.0, SVG Export Plug-In . SVG Version: 2.1.0 Build 108)  -->
  <defs>
    <style>
      .st0 {
        fill: #6a5e64;
      }
    </style>
  </defs>
  <g>
    <path class="st0" d="M19.1,79.3c2.8-.7,4-2.4,4-11.5V12h-6.9c-9,0-12.3,2.4-15.3,8.8L0,20.6l.6-9.9h50.5l.6,9.9-.9.2c-3-6.4-6.4-8.8-15.3-8.8h-6.7v55.8c0,9.2,1.2,10.9,4,11.5v1.1h-13.6v-1.1h0Z"/>
    <path class="st0" d="M53.5,79.3c2.8-.7,4-2.4,4-11.5v-22.9c0-8.2-1-9.1-4-10.4v-.9l8.5-3.7.7.6v12.6c1.6-4.2,4.5-8,7.1-10,2.5-1.9,5.8-3.3,10.4-3.3s6.7,1.2,6.7,2.4c0,2.1-2.2,4.8-4.9,4.8s-6.6-1.1-11.9-2.5c-3.4,2.1-7.1,8.8-7.5,13.3v19.8c0,9.2,1.2,10.9,4,11.5v1.1h-13.1v-1.1h0v.2Z"/>
    <path class="st0" d="M124.3,55.2c0-12-7.6-14.3-13.4-14.3s-5.3.7-7.2,1.6l-.4-.9c10.4-4.6,15.4-9.8,15.4-17.6s-4.5-10.4-11.1-10.4-9.7,2-13.9,6l-.8-.8c5.3-5.5,11.1-8.8,18.2-8.8s13.5,5.7,13.5,11.9-6.6,13.1-15.7,18c1.6-.5,3.4-.9,5.6-.9,6.3,0,16,3.3,16,14.5,0,16.7-17,29.7-37.4,40.4l-.6-1.2c18.5-9.4,31.9-23.8,31.9-37.5h0Z"/>
    <path class="st0" d="M140.2,79.3c2.8-.7,4-2.4,4-11.5V15c0-8.2-1-9.1-4-10.4v-.9l8.5-3.7.7.6v67.1c0,9.2,1.2,10.9,4,11.5v1.1h-13.1v-1.1h0Z"/>
    <path class="st0" d="M162.4,56.6c0-15.4,11.2-26.7,26.3-26.7s18.9,7.1,19.4,17.3h-40c-.4,1.9-.6,3.9-.6,6,0,14.4,9.2,23.8,22.3,23.8s13.3-3.7,18.4-9.5l.8.8c-5.6,7-13.2,13-22.9,13s-23.7-8.1-23.7-24.8h0ZM202.5,46.1c-.8-5-5.9-14.4-17.3-14.4s-14.7,5.6-16.9,14.4h34.2Z"/>
    <path class="st0" d="M219.1,63.8v-18.9c0-8.2-1-9.1-4-10.4v-.9l8.5-3.7.7.6v31c0,12.1,4.8,16.9,13.1,16.9s13.3-4.9,17.3-9.6v-24c0-8.2-1-9.1-4-10.4v-.9l8.5-3.7.7.6v37.2c0,9.2,1.2,10.9,4,11.5v1.1h-6.7c-1.8,0-2.5-.7-2.5-4v-5.8c-4.5,4.9-11.5,10.6-20,10.6s-15.6-6.9-15.6-17.5h0v.3Z"/>
    <path class="st0" d="M272.6,77l-.7-11.1.8-.2c4,9.4,11,14.1,20.2,14.1s11.5-3.3,11.5-10-9.1-10-15.7-12.3c-8.3-2.8-15.4-5-15.4-14.2s7.5-13.2,16.8-13.2,12.8,1.7,15.6,2.9l.4,9.4-.8.2c-3-7.4-9.6-11.2-16.4-11.2s-12,3.3-12,9.2,7.9,10,14.4,12c7.2,2.3,16.8,4.5,16.8,14.1s-7.9,14.8-17.2,14.9c-8.8.1-15.5-2.6-18.3-4.4h0v-.2Z"/>
    <path class="st0" d="M315.5,79.3c2.8-.7,4-2.4,4-11.5v-22.9c0-8.2-1-9.1-4-10.4v-.9l8.5-3.7.7.6v37.2c0,9.2,1.2,10.9,4,11.5v1.1h-13.1v-1.1h-.1ZM321.5,12.7c2.4,0,4.1,1.8,4.1,4.1s-1.8,4.1-4.1,4.1-4.1-1.8-4.1-4.1,1.8-4.1,4.1-4.1Z"/>
    <path class="st0" d="M337.3,77l-.7-11.1.8-.2c4,9.4,11,14.1,20.2,14.1s11.5-3.3,11.5-10-9.1-10-15.7-12.3c-8.3-2.8-15.4-5-15.4-14.2s7.5-13.2,16.8-13.2,12.8,1.7,15.6,2.9l.4,9.4-.8.2c-3-7.4-9.6-11.2-16.4-11.2s-12,3.3-12,9.2,7.9,10,14.4,12c7.2,2.3,16.8,4.5,16.8,14.1s-7.9,14.8-17.2,14.9c-8.8.1-15.5-2.6-18.3-4.4h0v-.2Z"/>
  </g>
  <g>
    <path class="st0" d="M138,100v.2h0v.2c0,.1,0,0-.1.1s-.2.2-.4.3-.4.3-.8.4-.7.2-1.1.3c-.4,0-.8.1-1.3.1-.8,0-1.5-.1-2.1-.4s-1.1-.7-1.6-1.2c-.4-.5-.8-1.1-1-1.9s-.4-1.6-.4-2.6.1-1.9.4-2.7.6-1.5,1.1-2,1-1,1.6-1.3,1.3-.4,2.1-.4.7,0,1.1.1.7.2.9.3c.3.1.6.2.8.4.2.1.4.2.5.3s.1.1.2.2h0v.9h0c0,.2,0,.1-.1.1,0,0-.2,0-.4-.2-.2-.1-.4-.3-.6-.4-.3-.2-.6-.3-1-.4s-.8-.2-1.4-.2-1.1.1-1.6.3c-.5.2-.9.6-1.2,1-.3.5-.6,1-.8,1.6s-.3,1.4-.3,2.2,0,1.5.3,2.2.4,1.2.8,1.6.8.8,1.2,1,1.1.3,1.7.3.9,0,1.3-.2.7-.3,1-.4c.3-.2.5-.3.7-.4s.3-.2.4-.2,0,0,0,0h0v.4h0v.4Z"/>
    <path class="st0" d="M150,95.4c0,1-.1,1.9-.3,2.6-.2.8-.6,1.5-1,2-.5.6-1,1-1.7,1.3s-1.5.5-2.4.5-1.7-.1-2.3-.4-1.2-.7-1.6-1.2-.7-1.2-.9-2-.3-1.6-.3-2.6.1-1.8.3-2.6.6-1.4,1-2,1-1,1.7-1.3,1.5-.5,2.4-.5,1.6.1,2.3.4,1.2.7,1.6,1.2c.4.5.7,1.2.9,1.9s.3,1.6.3,2.6h0ZM148.8,95.5c0-.7,0-1.4-.2-2s-.4-1.2-.7-1.6c-.3-.5-.7-.8-1.2-1.1-.5-.3-1.1-.4-1.9-.4s-1.4.1-1.9.4-.9.7-1.3,1.1-.6,1-.7,1.6-.2,1.3-.2,2,0,1.4.2,2.1.4,1.2.7,1.7.7.8,1.2,1.1,1.2.4,1.9.4,1.4-.1,1.9-.4.9-.7,1.3-1.1c.3-.5.5-1,.7-1.7s.2-1.3.2-2h0Z"/>
    <path class="st0" d="M161.6,101.1v.3q0,0-.1.2s-.1,0-.2.1h-.7c-.1,0-.2,0-.3-.2-.1,0-.2-.2-.3-.3-.1-.1-.2-.3-.3-.5l-4.3-7.6c-.2-.4-.4-.8-.6-1.1-.2-.4-.4-.8-.6-1.1h0v10.7h0c0,.2,0,.1,0,.1h-1v-11.5c0-.2,0-.4.2-.5.1,0,.2-.1.4-.1h.9c0,0,.2,0,.3.1s.2.1.2.2.2.2.3.4l3.3,5.8c.2.4.4.7.6,1s.4.7.5,1c.2.3.4.6.5,1,.2.3.3.6.5,1h0v-10.4h0c0-.2,0-.1,0-.1h1.1v11.5h-.4Z"/>
    <path class="st0" d="M171.3,98.4c0,.5-.1,1-.3,1.5-.2.4-.5.8-.8,1.1s-.8.5-1.2.7c-.5.2-1,.2-1.6.2s-.8,0-1.1-.1-.6-.2-.9-.3c-.3-.1-.5-.2-.7-.3s-.3-.2-.4-.3-.1-.2-.1-.2v-.9c0-.1,0,0,0,0h.1s.2,0,.4.2.4.2.6.4c.2.1.6.2.9.4s.8.2,1.2.2.7,0,1.1-.2c.3-.1.6-.2.8-.5.2-.2.4-.4.5-.7s.2-.6.2-1,0-.7-.2-1-.4-.5-.6-.7-.6-.4-.9-.6c-.3-.2-.7-.3-1-.5-.4-.2-.7-.4-1-.5-.3-.2-.6-.4-.9-.7-.3-.3-.5-.6-.6-.9-.2-.4-.2-.8-.2-1.2s0-.9.2-1.3.4-.7.7-1,.7-.5,1.1-.6.9-.2,1.4-.2h.8c.3,0,.5.1.8.2.2,0,.5.2.6.3.2.1.3.2.4.2s.1.1.1.1h0v.9h0q0,.1-.1.1s-.2,0-.3-.1c-.1,0-.3-.2-.5-.3s-.5-.2-.8-.3c-.3,0-.6-.1-1-.1s-.7,0-1,.1-.5.2-.7.4-.3.4-.4.6c0,.2-.1.5-.1.7,0,.4,0,.7.2,1s.4.5.6.7.6.4.9.6c.3.2.7.3,1,.5.4.2.7.4,1,.5.3.2.6.4.9.7.3.3.5.6.6.9s.2.8.2,1.2h.1Z"/>
    <path class="st0" d="M182.6,97.2c0,.7-.1,1.4-.3,2s-.5,1.1-.9,1.5-.9.7-1.4.9c-.5.2-1.2.3-1.9.3s-1.2-.1-1.7-.3c-.5-.2-1-.5-1.4-.9s-.7-.9-.9-1.4c-.2-.6-.3-1.2-.3-2v-7.7h0q0-.1.1-.1h1v7.6c0,.6,0,1.1.2,1.6s.4.8.6,1.1c.3.3.6.5,1,.7.4.1.9.2,1.4.2s1,0,1.4-.2.7-.4,1-.7c.3-.3.5-.7.6-1.1.1-.5.2-1,.2-1.6v-7.5h0c0-.1.1-.1.2-.1h.8v7.6h.3Z"/>
    <path class="st0" d="M192.3,101.1v.4h0q0,.1-.1.1h-5.3c-.1,0-.2,0-.4-.1-.1,0-.2-.2-.2-.5v-11.4h0c0-.1.1-.1.2-.1h.8c0,0,0,0,0,0h0v11.1h4.8c.1,0,0,0,0,0v.4h.2Z"/>
    <path class="st0" d="M200.2,90v.4c0,.1,0,0,0,0h-3.7v11h0c0,.1-.1.1-.2.1h-.8v-11.1h-3.7v-.8h0q0-.1.1-.1h8.5c.1,0,0,0,0,.1v.4h-.2Z"/>
    <path class="st0" d="M211.4,95.4c0,1-.1,1.9-.3,2.6-.2.8-.6,1.5-1,2-.5.6-1,1-1.7,1.3s-1.5.5-2.4.5-1.7-.1-2.3-.4-1.2-.7-1.6-1.2c-.4-.5-.7-1.2-.9-2s-.3-1.6-.3-2.6.1-1.8.3-2.6.5-1.4,1-2,1-1,1.7-1.3,1.5-.5,2.4-.5,1.6.1,2.3.4,1.2.7,1.6,1.2c.4.5.7,1.2.9,1.9s.3,1.6.3,2.6h0ZM210.2,95.5c0-.7,0-1.4-.2-2-.1-.6-.4-1.2-.7-1.6-.3-.5-.7-.8-1.2-1.1s-1.1-.4-1.9-.4-1.4.1-1.9.4-.9.7-1.3,1.1-.6,1-.7,1.6-.2,1.3-.2,2,0,1.4.2,2.1.4,1.2.7,1.7.7.8,1.2,1.1,1.2.4,1.9.4,1.4-.1,1.9-.4.9-.7,1.3-1.1c.3-.5.5-1,.7-1.7s.2-1.3.2-2h0Z"/>
    <path class="st0" d="M221.9,101.4h0c0,.2,0,.1,0,.1h-1c0,0,0,0-.1-.1v-.2l-1.1-3c-.1-.3-.3-.6-.4-.9-.1-.3-.3-.5-.5-.8s-.5-.4-.8-.5-.7-.2-1.1-.2h-1.3v5.5h0c0,.2,0,.1,0,.1h-1v-11.5c0-.2,0-.4.2-.5.1,0,.2-.1.4-.1h3.6c.5,0,.9.2,1.2.4s.6.4.9.7c.2.3.4.6.5.9s.2.7.2,1.1,0,.8-.2,1.1-.3.6-.5.8c-.2.2-.5.5-.7.6-.3.2-.6.3-1,.4.2,0,.4.2.6.4.2.1.3.3.5.5.1.2.3.4.4.7.1.2.2.5.4.9l1.1,2.9c0,.2.1.4.2.5v.2h-.5ZM219.9,92.7c0-.5-.1-1-.4-1.3-.2-.4-.6-.6-1.2-.8-.2,0-.4,0-.6-.1s-.5,0-.8,0h-1.5v4.5h1.8c.5,0,.9,0,1.2-.2.3-.1.6-.3.8-.5s.4-.4.5-.7.2-.6.2-.9h0Z"/>
    <path class="st0" d="M225.7,88.8s0-.1.1-.2.1,0,.2-.1h1v.3l-1.6,2.2s0,.1-.1.1h-.8v-.2l1.4-2.2h-.2ZM225.4,101.5h0c0,.1-.1.1-.2.1h-.8c0,0,0,0,0,0h0v-8.6h0c0-.2,0-.1,0-.1h1c0,0,0,0,0,0h0v8.6Z"/>
    <path class="st0" d="M237.5,101.3v.2h0c0,.1-.1.1-.2.1h-.9c0-.1-1.2-3.3-1.2-3.3h-5.4l-1.1,3.2h0c0,.2,0,.1-.1.1h-1c0,0,0,0,0-.1v-.2l4.3-11.6h0q0-.1.1-.1h1.1c0,.1,4.3,11.7,4.3,11.7h0ZM232.4,90.7h0l-2.3,6.6h4.7l-2.4-6.6h0Z"/>
    <path class="st0" d="M251.1,93c0,.6-.1,1.1-.3,1.6s-.5.9-.8,1.2-.8.6-1.3.8-1.1.3-1.9.3h-1.6v4.7h0c0,.2,0,.1,0,.1h-1v-11.5c0-.2,0-.4.2-.5.1,0,.2-.1.4-.1h3.2c.2,0,.5,0,.8.1s.6.2,1,.4.6.4.8.7.4.6.5,1,.2.8.2,1.2h-.2ZM249.8,93c0-.5-.1-1-.3-1.3-.2-.4-.5-.6-.8-.8s-.6-.3-.9-.3h-2.6v5.3h1.7c.5,0,1,0,1.3-.2s.7-.3.9-.6.4-.5.6-.9.2-.7.2-1.1h-.1Z"/>
    <path class="st0" d="M261,101.3v.2h0c0,.1-.1.1-.2.1h-.9c0-.1-1.2-3.3-1.2-3.3h-5.4l-1.1,3.2h0c0,.2,0,.1-.1.1h-1c0,0,0,0,0-.1v-.2l4.3-11.6h0q0-.1.1-.1h1.1c0,.1,4.3,11.7,4.3,11.7h.1ZM255.9,90.7h0l-2.3,6.6h4.7l-2.4-6.6h0Z"/>
    <path class="st0" d="M270.8,101.4h0c0,.2,0,.1,0,.1h-1c-.1,0,0,0-.1-.1v-.2l-1.1-3c-.1-.3-.3-.6-.4-.9s-.3-.5-.5-.8-.5-.4-.8-.5-.7-.2-1.1-.2h-1.3v5.5h0c0,.2,0,.1,0,.1h-1v-11.5c0-.2,0-.4.2-.5.1,0,.2-.1.4-.1h3.6c.5,0,.9.2,1.2.4s.6.4.9.7c.2.3.4.6.5.9s.2.7.2,1.1,0,.8-.2,1.1-.3.6-.5.8c-.2.2-.5.5-.7.6-.3.2-.6.3-1,.4.2,0,.4.2.6.4.2.1.3.3.5.5.1.2.3.4.4.7.1.2.2.5.4.9l1.1,2.9c0,.2.1.4.2.5v.2h-.5ZM268.8,92.7c0-.5-.1-1-.4-1.3-.2-.4-.6-.6-1.2-.8-.2,0-.4,0-.6-.1s-.5,0-.8,0h-1.5v4.5h1.8c.5,0,.9,0,1.2-.2.3-.1.6-.3.8-.5s.4-.4.5-.7.2-.6.2-.9h0Z"/>
    <path class="st0" d="M282.2,101.3v.2h0c0,.1-.1.1-.2.1h-.9c0-.1-1.2-3.3-1.2-3.3h-5.4l-1.1,3.2h0c0,.2,0,.1-.1.1h-1c-.1,0,0,0,0-.1v-.2l4.3-11.6h0q0-.1.1-.1h1.1c0,.1,4.3,11.7,4.3,11.7h.1ZM277.1,90.7h0l-2.3,6.6h4.7l-2.4-6.6h0Z"/>
    <path class="st0" d="M295.3,101.1v.4c0,.1,0,0-.1.1h-5.8c-.1,0-.2,0-.4-.1-.1,0-.2-.2-.2-.5v-11c0-.2,0-.4.2-.5.1,0,.2-.1.4-.1h5.7c.1,0,0,0,0,.1v.8c0,.1,0,0,0,0h-5.1v4.3h4.4c.1,0,0,0,0,0v.6h0q0,.1-.1.1h-4.3v4.9h5.3c.1,0,0,0,0,.2v.2h0v.5Z"/>
    <path class="st0" d="M304.3,101.1v.4h0q0,.1-.1.1h-5.3c-.1,0-.2,0-.4-.1-.1,0-.2-.2-.2-.5v-11.4h0c0-.1.1-.1.2-.1h.8c.1,0,0,0,0,0h0v11.1h4.8c.1,0,0,0,0,0v.4h.2Z"/>
    <path class="st0" d="M317.2,101.1v.4c0,.1,0,0-.1.1h-5.8c-.1,0-.2,0-.4-.1-.1,0-.2-.2-.2-.5v-11c0-.2,0-.4.2-.5.1,0,.2-.1.4-.1h5.7c.1,0,0,0,0,.1v.8c0,.1,0,0,0,0h-5.1v4.3h4.4c.1,0,0,0,0,0v.6h0q0,.1-.1.1h-4.3v4.9h5.3c.1,0,0,0,0,.2v.2h0v.5Z"/>
    <path class="st0" d="M326.1,98.4c0,.5-.1,1-.3,1.5-.2.4-.5.8-.8,1.1s-.8.5-1.2.7c-.5.2-1,.2-1.6.2s-.8,0-1.1-.1-.6-.2-.9-.3c-.3-.1-.5-.2-.7-.3-.2-.1-.3-.2-.4-.3s-.1-.2-.1-.2v-.9c0-.1,0,0,0,0h.1s.2,0,.4.2c.2.1.4.2.6.4s.6.2.9.4c.4.1.8.2,1.2.2s.7,0,1.1-.2c.3-.1.6-.2.8-.5.2-.2.4-.4.5-.7.1-.3.2-.6.2-1s0-.7-.2-1-.4-.5-.6-.7-.6-.4-.9-.6-.7-.3-1-.5-.7-.4-1-.5c-.3-.2-.6-.4-.9-.7-.3-.3-.5-.6-.6-.9-.2-.4-.2-.8-.2-1.2s0-.9.2-1.3.4-.7.7-1,.7-.5,1.1-.6.9-.2,1.4-.2h.8c.3,0,.5.1.8.2.2,0,.5.2.6.3s.3.2.4.2.1.1.1.1h0v.9h0q0,.1-.1.1s-.2,0-.3-.1c-.1,0-.3-.2-.5-.3s-.5-.2-.8-.3c-.3,0-.6-.1-1-.1s-.7,0-1,.1-.5.2-.7.4-.3.4-.4.6c0,.2-.1.5-.1.7,0,.4,0,.7.2,1s.4.5.6.7.6.4.9.6.7.3,1,.5c.4.2.7.4,1,.5.3.2.6.4.9.7s.5.6.6.9.2.8.2,1.2h0Z"/>
    <path class="st0" d="M335.7,93c0,.6-.1,1.1-.3,1.6-.2.5-.5.9-.8,1.2s-.8.6-1.3.8-1.1.3-1.9.3h-1.6v4.7h0c0,.2,0,.1,0,.1h-1v-11.5c0-.2,0-.4.2-.5.1,0,.2-.1.4-.1h3.2c.2,0,.5,0,.8.1s.6.2,1,.4.6.4.8.7.4.6.5,1,.2.8.2,1.2h-.2ZM334.4,93c0-.5-.1-1-.3-1.3-.2-.4-.5-.6-.8-.8s-.6-.3-.9-.3h-2.6v5.3h1.7c.5,0,1,0,1.3-.2s.7-.3.9-.6.4-.5.6-.9.2-.7.2-1.1h-.1Z"/>
    <path class="st0" d="M339.6,88.8s0-.1.1-.2.1,0,.2-.1h1v.3l-1.6,2.2s0,.1-.1.1h-.8v-.2l1.4-2.2h-.2ZM339.3,101.5h0c0,.1-.1.1-.2.1h-.8c-.1,0,0,0,0,0h0v-8.6h0c0-.2,0-.1,0-.1h1c.1,0,0,0,0,0h0v8.6Z"/>
    <path class="st0" d="M350.3,101.4h0c0,.2,0,.1,0,.1h-1c-.1,0,0,0-.1-.1v-.2l-1.1-3c-.1-.3-.3-.6-.4-.9s-.3-.5-.5-.8-.5-.4-.8-.5-.7-.2-1.1-.2h-1.3v5.5h0c0,.2,0,.1,0,.1h-1v-11.5c0-.2,0-.4.2-.5.1,0,.2-.1.4-.1h3.6c.5,0,.9.2,1.2.4s.6.4.9.7c.2.3.4.6.5.9s.2.7.2,1.1,0,.8-.2,1.1-.3.6-.5.8c-.2.2-.5.5-.7.6-.3.2-.6.3-1,.4.2,0,.4.2.6.4.2.1.3.3.5.5.1.2.3.4.4.7.1.2.2.5.4.9l1.1,2.9c0,.2.1.4.2.5v.2h-.5ZM348.3,92.7c0-.5-.1-1-.4-1.3-.2-.4-.6-.6-1.2-.8-.2,0-.4,0-.6-.1s-.5,0-.8,0h-1.5v4.5h1.8c.5,0,.9,0,1.2-.2.3-.1.6-.3.8-.5s.4-.4.5-.7.2-.6.2-.9h0Z"/>
    <path class="st0" d="M354.1,101.5h0c0,.2,0,.1,0,.1h-1v-11.9h0c0-.2,0-.1.1-.1h1c.1,0,0,0,0,0h0v11.9h-.1Z"/>
    <path class="st0" d="M365.1,90v.4c0,.1,0,0,0,0h-3.7v11h0c0,.1-.1.1-.2.1h-.8v-11.1h-3.7v-.8h0q0-.1.1-.1h8.5c.1,0,0,0,0,.1v.4h-.2Z"/>
    <path class="st0" d="M375.8,97.2c0,.7-.1,1.4-.3,2-.2.6-.5,1.1-.9,1.5s-.9.7-1.4.9c-.5.2-1.2.3-1.9.3s-1.2-.1-1.7-.3c-.5-.2-1-.5-1.4-.9s-.7-.9-.9-1.4c-.2-.6-.3-1.2-.3-2v-7.7h0q0-.1.1-.1h1v7.6c0,.6,0,1.1.2,1.6s.4.8.6,1.1c.3.3.6.5,1,.7.4.1.9.2,1.4.2s1,0,1.4-.2.7-.4,1-.7.5-.7.6-1.1.2-1,.2-1.6v-7.5h0c0-.1.1-.1.2-.1h.8v7.6h.3Z"/>
  </g>
</svg>