<?xml version="1.0" encoding="UTF-8"?>
<svg id="Layer_2" xmlns="http://www.w3.org/2000/svg" version="1.1" viewBox="0 0 375.8 269.9">
  <!-- Generator: Adobe Illustrator 29.2.0, SVG Export Plug-In . SVG Version: 2.1.0 Build 108)  -->
  <defs>
    <style>
      .st0 {
        fill: #6a5e64;
      }

      .st1 {
        fill: #63907c;
      }
    </style>
  </defs>
  <g>
    <path class="st1" d="M153.6,144.6v12h12c37.6,0,68-30.5,68-68v-12h-12c-37.6,0-68,30.4-68,68h0Z"/>
    <path class="st1" d="M135.1,8.5l8.5-8.5,8.5,8.5c26.6,26.6,26.6,69.6,0,96.2l-8.5,8.5-8.5-8.5c-26.6-26.6-26.6-69.6,0-96.2Z"/>
    <path class="st1" d="M121.6,156.6h12v-12c0-37.6-30.4-68-68-68h-12v12c0,37.6,30.4,68,68,68h0Z"/>
  </g>
  <g>
    <path class="st0" d="M19.1,247.4c2.8-.7,4-2.4,4-11.5v-55.8h-6.9c-9,0-12.3,2.4-15.3,8.8l-.9-.2.6-9.9h50.5l.6,9.9-.9.2c-3-6.4-6.4-8.8-15.3-8.8h-6.7v55.8c0,9.2,1.2,10.9,4,11.5v1.1h-13.6v-1.1h0Z"/>
    <path class="st0" d="M53.5,247.4c2.8-.7,4-2.4,4-11.5v-22.9c0-8.2-1-9.1-4-10.4v-.9l8.5-3.7.7.6v12.6c1.6-4.2,4.5-8,7.1-10,2.5-1.9,5.8-3.3,10.4-3.3s6.7,1.2,6.7,2.4c0,2.1-2.2,4.8-4.9,4.8s-6.6-1.1-11.9-2.5c-3.4,2.1-7.1,8.8-7.5,13.3v19.8c0,9.2,1.2,10.9,4,11.5v1.1h-13.1v-1.1h0Z"/>
    <path class="st0" d="M124.3,223.3c0-12-7.6-14.3-13.4-14.3s-5.3.7-7.2,1.6l-.4-.9c10.4-4.6,15.4-9.8,15.4-17.6s-4.5-10.4-11.1-10.4-9.7,2-13.9,6l-.8-.8c5.3-5.5,11.1-8.8,18.2-8.8s13.5,5.7,13.5,11.9-6.6,13.1-15.7,18c1.6-.5,3.4-.9,5.6-.9,6.3,0,16,3.3,16,14.5,0,16.7-17,29.7-37.4,40.4l-.6-1.2c18.5-9.4,31.9-23.8,31.9-37.5h0Z"/>
    <path class="st0" d="M140.2,247.4c2.8-.7,4-2.4,4-11.5v-52.8c0-8.2-1-9.1-4-10.4v-.9l8.5-3.7.7.6v67.1c0,9.2,1.2,10.9,4,11.5v1.1h-13.1v-1.1h0Z"/>
    <path class="st0" d="M162.4,224.7c0-15.4,11.2-26.7,26.3-26.7s18.9,7.1,19.4,17.3h-40c-.4,1.9-.6,3.9-.6,6,0,14.4,9.2,23.8,22.3,23.8s13.3-3.7,18.4-9.5l.8.8c-5.6,7-13.2,13-22.9,13s-23.7-8.1-23.7-24.8h0ZM202.5,214.2c-.8-5-5.9-14.4-17.3-14.4s-14.7,5.6-16.9,14.4h34.2Z"/>
    <path class="st0" d="M219.1,231.9v-18.9c0-8.2-1-9.1-4-10.4v-.9l8.5-3.7.7.6v31c0,12.1,4.8,16.9,13.1,16.9s13.3-4.9,17.3-9.6v-24c0-8.2-1-9.1-4-10.4v-.9l8.5-3.7.7.6v37.2c0,9.2,1.2,10.9,4,11.5v1.1h-6.7c-1.8,0-2.5-.7-2.5-4v-5.8c-4.5,4.9-11.5,10.6-20,10.6s-15.6-6.9-15.6-17.5h0Z"/>
    <path class="st0" d="M272.6,245.1l-.7-11.1.8-.2c4,9.4,11,14.1,20.2,14.1s11.5-3.3,11.5-10-9.1-10-15.7-12.3c-8.3-2.8-15.4-5-15.4-14.2s7.5-13.2,16.8-13.2,12.8,1.7,15.6,2.9l.4,9.4-.8.2c-3-7.4-9.6-11.2-16.4-11.2s-12,3.3-12,9.2,7.9,10,14.4,12c7.2,2.3,16.8,4.5,16.8,14.1s-7.9,14.8-17.2,14.9c-8.8.1-15.5-2.6-18.3-4.4h0Z"/>
    <path class="st0" d="M315.5,247.4c2.8-.7,4-2.4,4-11.5v-22.9c0-8.2-1-9.1-4-10.4v-.9l8.5-3.7.7.6v37.2c0,9.2,1.2,10.9,4,11.5v1.1h-13.1v-1.1h0ZM321.5,180.8c2.4,0,4.1,1.8,4.1,4.1s-1.8,4.1-4.1,4.1-4.1-1.8-4.1-4.1,1.8-4.1,4.1-4.1Z"/>
    <path class="st0" d="M337.3,245.1l-.7-11.1.8-.2c4,9.4,11,14.1,20.2,14.1s11.5-3.3,11.5-10-9.1-10-15.7-12.3c-8.3-2.8-15.4-5-15.4-14.2s7.5-13.2,16.8-13.2,12.8,1.7,15.6,2.9l.4,9.4-.8.2c-3-7.4-9.6-11.2-16.4-11.2s-12,3.3-12,9.2,7.9,10,14.4,12c7.2,2.3,16.8,4.5,16.8,14.1s-7.9,14.8-17.2,14.9c-8.8.1-15.5-2.6-18.3-4.4h0Z"/>
  </g>
  <g>
    <path class="st0" d="M138,268.1v.2c0,0,0,.1,0,.1s0,0,0,.1,0,0-.1.1-.2.2-.4.3-.4.3-.8.4-.7.2-1.1.3c-.4,0-.8.1-1.3.1-.8,0-1.5-.1-2.1-.4s-1.1-.7-1.6-1.2c-.4-.5-.8-1.1-1-1.9-.2-.8-.4-1.6-.4-2.6s.1-1.9.4-2.7.6-1.5,1.1-2c.5-.5,1-1,1.6-1.3s1.3-.4,2.1-.4.7,0,1.1.1.7.2.9.3c.3.1.6.2.8.4.2.1.4.2.5.3s.1.1.2.2c0,0,0,0,0,.1,0,0,0,.1,0,.2s0,.1,0,.2,0,.2,0,.2c0,0,0,.1,0,.2,0,0,0,0,0,.1s0,0-.1,0c0,0-.2,0-.4-.2-.2-.1-.4-.3-.6-.4-.3-.2-.6-.3-1-.4s-.8-.2-1.4-.2-1.1.1-1.6.3c-.5.2-.9.6-1.2,1-.3.5-.6,1-.8,1.6s-.3,1.4-.3,2.2,0,1.5.3,2.2.4,1.2.8,1.6.8.8,1.2,1,1.1.3,1.7.3.9,0,1.3-.2.7-.3,1-.4c.3-.2.5-.3.7-.4s.3-.2.4-.2,0,0,0,0c0,0,0,0,0,0s0,.1,0,.2c0,0,0,.1,0,.2h0Z"/>
    <path class="st0" d="M150,263.5c0,1-.1,1.9-.3,2.6-.2.8-.6,1.5-1,2-.5.6-1,1-1.7,1.3s-1.5.5-2.4.5-1.7-.1-2.3-.4-1.2-.7-1.6-1.2-.7-1.2-.9-2c-.2-.8-.3-1.6-.3-2.6s.1-1.8.3-2.6.6-1.4,1-2,1-1,1.7-1.3c.7-.3,1.5-.5,2.4-.5s1.6.1,2.3.4,1.2.7,1.6,1.2c.4.5.7,1.2.9,1.9s.3,1.6.3,2.6h0ZM148.8,263.6c0-.7,0-1.4-.2-2s-.4-1.2-.7-1.6c-.3-.5-.7-.8-1.2-1.1-.5-.3-1.1-.4-1.9-.4s-1.4.1-1.9.4-.9.7-1.3,1.1-.6,1-.7,1.6-.2,1.3-.2,2,0,1.4.2,2.1.4,1.2.7,1.7.7.8,1.2,1.1,1.2.4,1.9.4,1.4-.1,1.9-.4c.5-.3.9-.7,1.3-1.1.3-.5.5-1,.7-1.7s.2-1.3.2-2h0Z"/>
    <path class="st0" d="M161.6,269.2c0,.1,0,.2,0,.3s0,.1-.1.2c0,0-.1,0-.2.1,0,0-.1,0-.2,0h-.2c-.1,0-.2,0-.3,0s-.2,0-.3-.2c-.1,0-.2-.2-.3-.3-.1-.1-.2-.3-.3-.5l-4.3-7.6c-.2-.4-.4-.8-.6-1.1-.2-.4-.4-.8-.6-1.1h0v10.7s0,0,0,.1,0,0,0,0-.1,0-.2,0c0,0-.2,0-.3,0s-.2,0-.3,0c0,0-.1,0-.2,0,0,0,0,0,0,0,0,0,0,0,0-.1v-11.4c0-.2,0-.4.2-.5.1,0,.2-.1.4-.1h.5c.1,0,.3,0,.4,0s.2,0,.3.1.2.1.2.2.2.2.3.4l3.3,5.8c.2.4.4.7.6,1s.4.7.5,1c.2.3.4.6.5,1,.2.3.3.6.5,1h0v-10.4s0,0,0-.1,0,0,0,0,.1,0,.2,0c0,0,.2,0,.3,0s.2,0,.3,0c0,0,.1,0,.2,0,0,0,0,0,.1,0,0,0,0,0,0,.1v11.4h0Z"/>
    <path class="st0" d="M171.3,266.5c0,.5-.1,1-.3,1.5-.2.4-.5.8-.8,1.1s-.8.5-1.2.7c-.5.2-1,.2-1.6.2s-.8,0-1.1-.1-.6-.2-.9-.3c-.3-.1-.5-.2-.7-.3s-.3-.2-.4-.3-.1-.2-.1-.2,0-.2,0-.4,0-.2,0-.3,0-.1,0-.2,0,0,0,0,0,0,.1,0c0,0,.2,0,.4.2s.4.2.6.4c.2.1.6.2.9.4s.8.2,1.2.2.7,0,1.1-.2c.3-.1.6-.2.8-.5.2-.2.4-.4.5-.7s.2-.6.2-1,0-.7-.2-1c-.2-.3-.4-.5-.6-.7s-.6-.4-.9-.6c-.3-.2-.7-.3-1-.5-.4-.2-.7-.4-1-.5-.3-.2-.6-.4-.9-.7-.3-.3-.5-.6-.6-.9-.2-.4-.2-.8-.2-1.2s0-.9.2-1.3c.2-.4.4-.7.7-1s.7-.5,1.1-.6.9-.2,1.4-.2.5,0,.8,0,.5.1.8.2c.2,0,.5.2.6.3.2.1.3.2.4.2s.1.1.1.1c0,0,0,0,0,.1s0,.1,0,.2,0,.1,0,.2,0,.2,0,.2c0,0,0,.1,0,.2,0,0,0,0,0,.1,0,0,0,0-.1,0,0,0-.2,0-.3-.1-.1,0-.3-.2-.5-.3s-.5-.2-.8-.3c-.3,0-.6-.1-1-.1s-.7,0-1,.1-.5.2-.7.4-.3.4-.4.6c0,.2-.1.5-.1.7,0,.4,0,.7.2,1,.2.3.4.5.6.7s.6.4.9.6c.3.2.7.3,1,.5.4.2.7.4,1,.5.3.2.6.4.9.7.3.3.5.6.6.9s.2.8.2,1.2h0Z"/>
    <path class="st0" d="M182.6,265.3c0,.7-.1,1.4-.3,2-.2.6-.5,1.1-.9,1.5-.4.4-.9.7-1.4.9-.5.2-1.2.3-1.9.3s-1.2-.1-1.7-.3c-.5-.2-1-.5-1.4-.9s-.7-.9-.9-1.4c-.2-.6-.3-1.2-.3-2v-7.7s0,0,0-.1c0,0,0,0,.1,0,0,0,.1,0,.2,0,0,0,.2,0,.3,0s.2,0,.3,0c0,0,.1,0,.2,0,0,0,0,0,0,0,0,0,0,0,0,.1v7.5c0,.6,0,1.1.2,1.6s.4.8.6,1.1c.3.3.6.5,1,.7.4.1.9.2,1.4.2s1,0,1.4-.2.7-.4,1-.7c.3-.3.5-.7.6-1.1.1-.5.2-1,.2-1.6v-7.5s0,0,0-.1c0,0,0,0,0,0s.1,0,.2,0c0,0,.2,0,.3,0s.2,0,.3,0c0,0,.1,0,.2,0,0,0,0,0,0,0,0,0,0,0,0,.1v7.5h0Z"/>
    <path class="st0" d="M192.3,269.2c0,0,0,.2,0,.2s0,.1,0,.2c0,0,0,0,0,.1,0,0,0,0-.1,0h-5.3c-.1,0-.2,0-.4-.1-.1,0-.2-.2-.2-.5v-11.4s0,0,0-.1c0,0,0,0,0,0s.1,0,.2,0c0,0,.2,0,.3,0s.2,0,.3,0c0,0,.1,0,.2,0s0,0,0,0c0,0,0,0,0,.1v11h4.7s0,0,.1,0,0,0,0,0c0,0,0,0,0,.2,0,0,0,.1,0,.2h0Z"/>
    <path class="st0" d="M200.2,258.1c0,0,0,.1,0,.2,0,0,0,.1,0,.2s0,0,0,0c0,0,0,0-.1,0h-3.6v11s0,0,0,.1c0,0,0,0,0,0s-.1,0-.2,0c0,0-.2,0-.3,0s-.2,0-.3,0c0,0-.1,0-.2,0,0,0,0,0,0,0,0,0,0,0,0-.1v-11h-3.6s0,0-.1,0c0,0,0,0,0,0s0,0,0-.2c0,0,0-.1,0-.2s0-.2,0-.2c0,0,0-.1,0-.2,0,0,0,0,0-.1,0,0,0,0,.1,0h8.4s0,0,.1,0,0,0,0,.1,0,.1,0,.2c0,0,0,.1,0,.2h0Z"/>
    <path class="st0" d="M211.4,263.5c0,1-.1,1.9-.3,2.6-.2.8-.6,1.5-1,2-.5.6-1,1-1.7,1.3s-1.5.5-2.4.5-1.7-.1-2.3-.4-1.2-.7-1.6-1.2c-.4-.5-.7-1.2-.9-2-.2-.8-.3-1.6-.3-2.6s.1-1.8.3-2.6.5-1.4,1-2,1-1,1.7-1.3,1.5-.5,2.4-.5,1.6.1,2.3.4,1.2.7,1.6,1.2c.4.5.7,1.2.9,1.9s.3,1.6.3,2.6h0ZM210.2,263.6c0-.7,0-1.4-.2-2-.1-.6-.4-1.2-.7-1.6-.3-.5-.7-.8-1.2-1.1s-1.1-.4-1.9-.4-1.4.1-1.9.4-.9.7-1.3,1.1-.6,1-.7,1.6-.2,1.3-.2,2,0,1.4.2,2.1.4,1.2.7,1.7.7.8,1.2,1.1,1.2.4,1.9.4,1.4-.1,1.9-.4c.5-.3.9-.7,1.3-1.1.3-.5.5-1,.7-1.7s.2-1.3.2-2h0Z"/>
    <path class="st0" d="M221.9,269.5s0,0,0,.1,0,0,0,0-.1,0-.2,0c0,0-.2,0-.3,0s-.2,0-.3,0c0,0-.1,0-.2,0s0,0-.1-.1c0,0,0-.1,0-.2l-1.1-3c-.1-.3-.3-.6-.4-.9-.1-.3-.3-.5-.5-.8s-.5-.4-.8-.5-.7-.2-1.1-.2h-1.3v5.5s0,0,0,.1,0,0,0,0-.1,0-.2,0c0,0-.2,0-.3,0s-.2,0-.3,0c0,0-.1,0-.2,0,0,0,0,0,0,0s0,0,0-.1v-11.4c0-.2,0-.4.2-.5.1,0,.2-.1.4-.1h2.3c.3,0,.5,0,.8,0s.4,0,.5,0c.5,0,.9.2,1.2.4s.6.4.9.7c.2.3.4.6.5.9s.2.7.2,1.1,0,.8-.2,1.1-.3.6-.5.8c-.2.2-.5.5-.7.6-.3.2-.6.3-1,.4.2,0,.4.2.6.4.2.1.3.3.5.5.1.2.3.4.4.7.1.2.2.5.4.9l1.1,2.9c0,.2.1.4.2.5,0,0,0,.1,0,.2h0ZM219.9,260.8c0-.5-.1-1-.4-1.3-.2-.4-.6-.6-1.2-.8-.2,0-.4,0-.6-.1s-.5,0-.8,0h-1.5v4.5h1.8c.5,0,.9,0,1.2-.2.3-.1.6-.3.8-.5s.4-.4.5-.7.2-.6.2-.9h0Z"/>
    <path class="st0" d="M225.7,256.9c0,0,0-.1.1-.2s.1,0,.2-.1c0,0,.1,0,.2,0,0,0,.2,0,.3,0s.2,0,.3,0,.1,0,.2,0c0,0,0,0,0,.1,0,0,0,.1,0,.2l-1.6,2.2c0,0,0,.1-.1.1s0,0-.1,0-.1,0-.2,0h-.2c0,0-.2,0-.2,0s-.1,0-.1,0,0,0,0-.1c0,0,0,0,0-.1l1.4-2.2h0ZM225.4,269.6s0,0,0,.1c0,0,0,0,0,0s-.1,0-.2,0c0,0-.2,0-.3,0s-.2,0-.3,0c0,0-.1,0-.2,0s0,0,0,0c0,0,0,0,0-.1v-8.5s0,0,0-.1,0,0,0,0c0,0,.1,0,.2,0s.2,0,.3,0,.2,0,.3,0,.1,0,.2,0,0,0,0,0,0,0,0,.1v8.5Z"/>
    <path class="st0" d="M237.5,269.4c0,0,0,.2,0,.2,0,0,0,.1,0,.1s-.1,0-.2,0c0,0-.2,0-.3,0s-.2,0-.3,0c0,0-.1,0-.2,0s0,0-.1,0c0,0,0,0,0-.1l-1.2-3.2h-5.4l-1.1,3.2s0,0,0,.1,0,0-.1,0-.1,0-.2,0c0,0-.2,0-.3,0s-.2,0-.3,0c0,0-.1,0-.2,0s0,0,0-.1,0-.1,0-.2l4.3-11.6s0,0,0-.1c0,0,0,0,.1,0s.1,0,.2,0,.2,0,.3,0,.2,0,.3,0c0,0,.2,0,.2,0,0,0,.1,0,.1,0,0,0,0,0,0,.1l4.3,11.6h0ZM232.4,258.8h0l-2.3,6.6h4.7l-2.4-6.6h0Z"/>
    <path class="st0" d="M251.1,261.1c0,.6-.1,1.1-.3,1.6-.2.5-.5.9-.8,1.2s-.8.6-1.3.8-1.1.3-1.9.3h-1.6v4.7s0,0,0,.1,0,0,0,0-.1,0-.2,0c0,0-.2,0-.3,0s-.2,0-.3,0c0,0-.1,0-.2,0,0,0,0,0,0,0s0,0,0-.1v-11.4c0-.2,0-.4.2-.5.1,0,.2-.1.4-.1h2.5c.2,0,.5,0,.7,0,.2,0,.5,0,.8.1s.6.2,1,.4.6.4.8.7.4.6.5,1c.1.4.2.8.2,1.2h0ZM249.8,261.1c0-.5-.1-1-.3-1.3-.2-.4-.5-.6-.8-.8s-.6-.3-.9-.3-.6,0-.9,0h-1.7v5.3h1.7c.5,0,1,0,1.3-.2s.7-.3.9-.6.4-.5.6-.9.2-.7.2-1.1h0Z"/>
    <path class="st0" d="M261,269.4c0,0,0,.2,0,.2,0,0,0,.1,0,.1s-.1,0-.2,0c0,0-.2,0-.3,0s-.2,0-.3,0c0,0-.1,0-.2,0s0,0-.1,0c0,0,0,0,0-.1l-1.2-3.2h-5.4l-1.1,3.2s0,0,0,.1,0,0-.1,0-.1,0-.2,0c0,0-.2,0-.3,0s-.2,0-.3,0c0,0-.1,0-.2,0s0,0,0-.1,0-.1,0-.2l4.3-11.6s0,0,0-.1c0,0,0,0,.1,0s.1,0,.2,0,.2,0,.3,0,.2,0,.3,0c0,0,.2,0,.2,0,0,0,.1,0,.1,0,0,0,0,0,0,.1l4.3,11.6h0ZM255.9,258.8h0l-2.3,6.6h4.7l-2.4-6.6h0Z"/>
    <path class="st0" d="M270.8,269.5s0,0,0,.1,0,0,0,0-.1,0-.2,0c0,0-.2,0-.3,0s-.2,0-.3,0c0,0-.1,0-.2,0s0,0-.1-.1c0,0,0-.1,0-.2l-1.1-3c-.1-.3-.3-.6-.4-.9-.1-.3-.3-.5-.5-.8s-.5-.4-.8-.5-.7-.2-1.1-.2h-1.3v5.5s0,0,0,.1,0,0,0,0-.1,0-.2,0c0,0-.2,0-.3,0s-.2,0-.3,0c0,0-.1,0-.2,0,0,0,0,0,0,0s0,0,0-.1v-11.4c0-.2,0-.4.2-.5.1,0,.2-.1.4-.1h2.3c.3,0,.5,0,.8,0s.4,0,.5,0c.5,0,.9.2,1.2.4s.6.4.9.7c.2.3.4.6.5.9s.2.7.2,1.1,0,.8-.2,1.1-.3.6-.5.8c-.2.2-.5.5-.7.6-.3.2-.6.3-1,.4.2,0,.4.2.6.4.2.1.3.3.5.5.1.2.3.4.4.7.1.2.2.5.4.9l1.1,2.9c0,.2.1.4.2.5,0,0,0,.1,0,.2h0ZM268.8,260.8c0-.5-.1-1-.4-1.3-.2-.4-.6-.6-1.2-.8-.2,0-.4,0-.6-.1s-.5,0-.8,0h-1.5v4.5h1.8c.5,0,.9,0,1.2-.2.3-.1.6-.3.8-.5s.4-.4.5-.7.2-.6.2-.9h0Z"/>
    <path class="st0" d="M282.2,269.4c0,0,0,.2,0,.2,0,0,0,.1,0,.1s-.1,0-.2,0c0,0-.2,0-.3,0s-.2,0-.3,0c0,0-.1,0-.2,0s0,0-.1,0c0,0,0,0,0-.1l-1.2-3.2h-5.4l-1.1,3.2s0,0,0,.1,0,0-.1,0-.1,0-.2,0c0,0-.2,0-.3,0s-.2,0-.3,0c0,0-.1,0-.2,0s0,0,0-.1,0-.1,0-.2l4.3-11.6s0,0,0-.1c0,0,0,0,.1,0s.1,0,.2,0,.2,0,.3,0,.2,0,.3,0c0,0,.2,0,.2,0,0,0,.1,0,.1,0,0,0,0,0,0,.1l4.3,11.6h0ZM277.1,258.8h0l-2.3,6.6h4.7l-2.4-6.6h0Z"/>
    <path class="st0" d="M295.3,269.2c0,0,0,.1,0,.2,0,0,0,.1,0,.2s0,0-.1.1c0,0,0,0-.1,0h-5.7c-.1,0-.2,0-.4-.1-.1,0-.2-.2-.2-.5v-11c0-.2,0-.4.2-.5.1,0,.2-.1.4-.1h5.6s0,0,.1,0,0,0,0,.1,0,.1,0,.2c0,0,0,.1,0,.2s0,.1,0,.2c0,0,0,.1,0,.2s0,0,0,0c0,0,0,0-.1,0h-5v4.3h4.3s0,0,.1,0,0,0,0,0,0,0,0,.2c0,0,0,.1,0,.2s0,.1,0,.2,0,.1,0,.1,0,0,0,0c0,0,0,0-.1,0h-4.3v4.9h5.1s0,0,.1,0,0,0,.1,0,0,0,0,.2,0,.1,0,.2h0Z"/>
    <path class="st0" d="M304.3,269.2c0,0,0,.2,0,.2s0,.1,0,.2,0,0,0,.1c0,0,0,0-.1,0h-5.3c-.1,0-.2,0-.4-.1-.1,0-.2-.2-.2-.5v-11.4s0,0,0-.1c0,0,0,0,0,0s.1,0,.2,0,.2,0,.3,0,.2,0,.3,0,.1,0,.2,0,0,0,0,0c0,0,0,0,0,.1v11h4.7s0,0,.1,0,0,0,0,0,0,0,0,.2c0,0,0,.1,0,.2h0Z"/>
    <path class="st0" d="M317.2,269.2c0,0,0,.1,0,.2,0,0,0,.1,0,.2s0,0-.1.1c0,0,0,0-.1,0h-5.7c-.1,0-.2,0-.4-.1-.1,0-.2-.2-.2-.5v-11c0-.2,0-.4.2-.5.1,0,.2-.1.4-.1h5.6s0,0,.1,0,0,0,0,.1,0,.1,0,.2c0,0,0,.1,0,.2s0,.1,0,.2c0,0,0,.1,0,.2s0,0,0,0c0,0,0,0-.1,0h-5v4.3h4.3s0,0,.1,0,0,0,0,0,0,0,0,.2c0,0,0,.1,0,.2s0,.1,0,.2,0,.1,0,.1,0,0,0,0c0,0,0,0-.1,0h-4.3v4.9h5.1s0,0,.1,0,0,0,.1,0,0,0,0,.2,0,.1,0,.2h0Z"/>
    <path class="st0" d="M326.1,266.5c0,.5-.1,1-.3,1.5-.2.4-.5.8-.8,1.1s-.8.5-1.2.7c-.5.2-1,.2-1.6.2s-.8,0-1.1-.1-.6-.2-.9-.3c-.3-.1-.5-.2-.7-.3-.2-.1-.3-.2-.4-.3s-.1-.2-.1-.2,0-.2,0-.4,0-.2,0-.3,0-.1,0-.2,0,0,0,0,0,0,.1,0c0,0,.2,0,.4.2.2.1.4.2.6.4s.6.2.9.4c.4.1.8.2,1.2.2s.7,0,1.1-.2c.3-.1.6-.2.8-.5.2-.2.4-.4.5-.7.1-.3.2-.6.2-1s0-.7-.2-1c-.2-.3-.4-.5-.6-.7s-.6-.4-.9-.6c-.3-.2-.7-.3-1-.5s-.7-.4-1-.5c-.3-.2-.6-.4-.9-.7-.3-.3-.5-.6-.6-.9-.2-.4-.2-.8-.2-1.2s0-.9.2-1.3.4-.7.7-1,.7-.5,1.1-.6.9-.2,1.4-.2.5,0,.8,0,.5.1.8.2c.2,0,.5.2.6.3s.3.2.4.2.1.1.1.1c0,0,0,0,0,.1s0,.1,0,.2v.2c0,0,0,.2,0,.2,0,0,0,.1,0,.2,0,0,0,0,0,.1,0,0,0,0-.1,0,0,0-.2,0-.3-.1-.1,0-.3-.2-.5-.3s-.5-.2-.8-.3c-.3,0-.6-.1-1-.1s-.7,0-1,.1-.5.2-.7.4-.3.4-.4.6c0,.2-.1.5-.1.7,0,.4,0,.7.2,1,.2.3.4.5.6.7s.6.4.9.6c.3.2.7.3,1,.5.4.2.7.4,1,.5.3.2.6.4.9.7s.5.6.6.9.2.8.2,1.2h0Z"/>
    <path class="st0" d="M335.7,261.1c0,.6-.1,1.1-.3,1.6-.2.5-.5.9-.8,1.2s-.8.6-1.3.8-1.1.3-1.9.3h-1.6v4.7s0,0,0,.1,0,0,0,0-.1,0-.2,0c0,0-.2,0-.3,0s-.2,0-.3,0c0,0-.1,0-.2,0,0,0,0,0,0,0s0,0,0-.1v-11.4c0-.2,0-.4.2-.5.1,0,.2-.1.4-.1h2.5c.2,0,.5,0,.7,0,.2,0,.5,0,.8.1s.6.2,1,.4.6.4.8.7.4.6.5,1c.1.4.2.8.2,1.2h0ZM334.4,261.1c0-.5-.1-1-.3-1.3-.2-.4-.5-.6-.8-.8s-.6-.3-.9-.3-.6,0-.9,0h-1.7v5.3h1.7c.5,0,1,0,1.3-.2s.7-.3.9-.6.4-.5.6-.9.2-.7.2-1.1h0Z"/>
    <path class="st0" d="M339.6,256.9c0,0,0-.1.1-.2s.1,0,.2-.1c0,0,.1,0,.2,0,0,0,.2,0,.3,0s.2,0,.3,0,.1,0,.2,0c0,0,0,0,0,.1,0,0,0,.1,0,.2l-1.6,2.2c0,0,0,.1-.1.1s0,0-.1,0-.1,0-.2,0h-.2c0,0-.2,0-.2,0s-.1,0-.1,0,0,0,0-.1c0,0,0,0,0-.1l1.4-2.2h0ZM339.3,269.6s0,0,0,.1c0,0,0,0,0,0s-.1,0-.2,0c0,0-.2,0-.3,0s-.2,0-.3,0c0,0-.1,0-.2,0s0,0,0,0c0,0,0,0,0-.1v-8.5s0,0,0-.1,0,0,0,0c0,0,.1,0,.2,0s.2,0,.3,0,.2,0,.3,0,.1,0,.2,0,0,0,0,0,0,0,0,.1v8.5Z"/>
    <path class="st0" d="M350.3,269.5s0,0,0,.1,0,0,0,0-.1,0-.2,0c0,0-.2,0-.3,0s-.2,0-.3,0c0,0-.1,0-.2,0s0,0-.1-.1c0,0,0-.1,0-.2l-1.1-3c-.1-.3-.3-.6-.4-.9-.1-.3-.3-.5-.5-.8s-.5-.4-.8-.5-.7-.2-1.1-.2h-1.3v5.5s0,0,0,.1,0,0,0,0-.1,0-.2,0c0,0-.2,0-.3,0s-.2,0-.3,0c0,0-.1,0-.2,0,0,0,0,0,0,0s0,0,0-.1v-11.4c0-.2,0-.4.2-.5.1,0,.2-.1.4-.1h2.3c.3,0,.5,0,.8,0s.4,0,.5,0c.5,0,.9.2,1.2.4s.6.4.9.7c.2.3.4.6.5.9s.2.7.2,1.1,0,.8-.2,1.1-.3.6-.5.8c-.2.2-.5.5-.7.6-.3.2-.6.3-1,.4.2,0,.4.2.6.4.2.1.3.3.5.5.1.2.3.4.4.7.1.2.2.5.4.9l1.1,2.9c0,.2.1.4.2.5,0,0,0,.1,0,.2h0ZM348.3,260.8c0-.5-.1-1-.4-1.3-.2-.4-.6-.6-1.2-.8-.2,0-.4,0-.6-.1s-.5,0-.8,0h-1.5v4.5h1.8c.5,0,.9,0,1.2-.2.3-.1.6-.3.8-.5s.4-.4.5-.7.2-.6.2-.9h0Z"/>
    <path class="st0" d="M354.1,269.6s0,0,0,.1,0,0,0,0-.1,0-.2,0c0,0-.2,0-.3,0s-.2,0-.3,0c0,0-.1,0-.2,0,0,0,0,0,0,0s0,0,0-.1v-11.8s0,0,0-.1,0,0,.1,0c0,0,.1,0,.2,0s.2,0,.3,0,.2,0,.3,0,.1,0,.2,0,0,0,0,0c0,0,0,0,0,.1v11.8h0Z"/>
    <path class="st0" d="M365.1,258.1c0,0,0,.1,0,.2,0,0,0,.1,0,.2s0,0,0,0c0,0,0,0-.1,0h-3.6v11s0,0,0,.1c0,0,0,0,0,0s-.1,0-.2,0c0,0-.2,0-.3,0s-.2,0-.3,0c0,0-.1,0-.2,0,0,0,0,0,0,0,0,0,0,0,0-.1v-11h-3.6s0,0-.1,0c0,0,0,0,0,0,0,0,0,0,0-.2,0,0,0-.1,0-.2s0-.2,0-.2c0,0,0-.1,0-.2,0,0,0,0,0-.1,0,0,0,0,.1,0h8.4s0,0,.1,0,0,0,0,.1,0,.1,0,.2c0,0,0,.1,0,.2h0Z"/>
    <path class="st0" d="M375.8,265.3c0,.7-.1,1.4-.3,2-.2.6-.5,1.1-.9,1.5-.4.4-.9.7-1.4.9-.5.2-1.2.3-1.9.3s-1.2-.1-1.7-.3c-.5-.2-1-.5-1.4-.9s-.7-.9-.9-1.4c-.2-.6-.3-1.2-.3-2v-7.7s0,0,0-.1c0,0,0,0,.1,0,0,0,.1,0,.2,0s.2,0,.3,0,.2,0,.3,0,.1,0,.2,0c0,0,0,0,0,0,0,0,0,0,0,.1v7.5c0,.6,0,1.1.2,1.6s.4.8.6,1.1c.3.3.6.5,1,.7.4.1.9.2,1.4.2s1,0,1.4-.2.7-.4,1-.7.5-.7.6-1.1.2-1,.2-1.6v-7.5s0,0,0-.1c0,0,0,0,0,0s.1,0,.2,0c0,0,.2,0,.3,0s.2,0,.3,0,.1,0,.2,0c0,0,0,0,0,0,0,0,0,0,0,.1v7.5h0Z"/>
  </g>
</svg>