<?xml version="1.0" encoding="UTF-8"?>
<svg id="Layer_2" xmlns="http://www.w3.org/2000/svg" version="1.1" viewBox="0 0 179.8 156.6">
  <!-- Generator: Adobe Illustrator 29.2.0, SVG Export Plug-In . SVG Version: 2.1.0 Build 108)  -->
  <defs>
    <style>
      .st0 {
        fill: #63907c;
      }
    </style>
  </defs>
  <path class="st0" d="M99.8,144.6v12h12c37.6,0,68-30.5,68-68v-12h-12c-37.6,0-68,30.4-68,68h0Z"/>
  <path class="st0" d="M81.3,8.5L89.8,0l8.5,8.5c26.6,26.6,26.6,69.6,0,96.2l-8.5,8.5-8.5-8.5c-26.6-26.6-26.6-69.6,0-96.2Z"/>
  <path class="st0" d="M67.8,156.6h12v-12c0-37.6-30.4-68-68-68H-.2v12c0,37.6,30.4,68,68,68h0Z"/>
</svg>