<?xml version="1.0" encoding="UTF-8"?>
<svg id="Layer_2" xmlns="http://www.w3.org/2000/svg" version="1.1" viewBox="0 0 612 612">
  <!-- Generator: Adobe Illustrator 29.2.0, SVG Export Plug-In . SVG Version: 2.1.0 Build 108)  -->
  <defs>
    <style>
      .st0 {
        fill: #f1f0f0;
      }

      .st1 {
        fill: #63907c;
      }

      .st2 {
        fill: #6a5e64;
      }
    </style>
  </defs>
  <rect class="st0" width="612" height="612"/>
  <g>
    <path class="st1" d="M266.03,280.24v11.98h11.98c37.57,0,68.02-30.45,68.02-68.02v-11.98h-11.98c-37.57,0-68.02,30.45-68.02,68.02Z"/>
    <path class="st1" d="M247.56,144.12l8.47-8.47,8.47,8.47c26.56,26.56,26.56,69.63,0,96.2l-8.47,8.47-8.47-8.47c-26.56-26.56-26.56-69.63,0-96.2Z"/>
    <path class="st1" d="M234.05,292.22h11.98v-11.98c0-37.57-30.45-68.02-68.02-68.02h-11.98v11.98c0,37.57,30.45,68.02,68.02,68.02Z"/>
  </g>
  <g>
    <path class="st2" d="M131.54,383.06c2.79-.7,3.98-2.39,3.98-11.55v-55.75h-6.87c-8.96,0-12.34,2.39-15.33,8.76l-.9-.2.6-9.86h50.47l.6,9.86-.9.2c-2.99-6.37-6.37-8.76-15.33-8.76h-6.67v55.75c0,9.16,1.19,10.85,3.98,11.55v1.09h-13.64v-1.09Z"/>
    <path class="st2" d="M165.88,383.06c2.79-.7,3.98-2.39,3.98-11.55v-22.9c0-8.16-1-9.06-3.98-10.35v-.9l8.46-3.68.7.6v12.64c1.59-4.18,4.48-7.96,7.07-9.95,2.49-1.89,5.77-3.29,10.45-3.29s6.67,1.19,6.67,2.39c0,2.09-2.19,4.78-4.88,4.78-2.39,0-6.57-1.09-11.85-2.49-3.38,2.09-7.07,8.76-7.47,13.34v19.81c0,9.16,1.19,10.85,3.98,11.55v1.09h-13.14v-1.09Z"/>
    <path class="st2" d="M236.76,358.96c0-12.05-7.57-14.33-13.44-14.33-2.89,0-5.28.7-7.17,1.59l-.4-.9c10.35-4.58,15.43-9.76,15.43-17.62,0-6.47-4.48-10.35-11.15-10.35-4.98,0-9.66,1.99-13.94,5.97l-.8-.8c5.28-5.48,11.15-8.76,18.22-8.76,8.56,0,13.54,5.67,13.54,11.85,0,8.66-6.57,13.14-15.73,18.02,1.59-.5,3.38-.9,5.57-.9,6.27,0,16.03,3.29,16.03,14.53,0,16.72-17.02,29.67-37.43,40.42l-.6-1.2c18.52-9.36,31.86-23.79,31.86-37.53Z"/>
    <path class="st2" d="M252.59,383.06c2.79-.7,3.98-2.39,3.98-11.55v-52.76c0-8.16-1-9.06-3.98-10.35v-.9l8.46-3.68.7.6v67.1c0,9.16,1.19,10.85,3.98,11.55v1.09h-13.14v-1.09Z"/>
    <path class="st2" d="M274.79,360.36c0-15.43,11.25-26.68,26.28-26.68,11.45,0,18.91,7.07,19.41,17.32h-40.02c-.4,1.89-.6,3.88-.6,5.97,0,14.43,9.16,23.79,22.3,23.79,8.06,0,13.34-3.68,18.42-9.46l.8.8c-5.57,6.97-13.24,13.04-22.9,13.04-10.95,0-23.69-8.06-23.69-24.79ZM314.91,349.81c-.8-4.98-5.87-14.43-17.32-14.43-8.56,0-14.73,5.57-16.92,14.43h34.24Z"/>
    <path class="st2" d="M331.53,367.53v-18.91c0-8.16-1-9.06-3.98-10.35v-.9l8.46-3.68.7.6v30.96c0,12.14,4.78,16.92,13.14,16.92,7.47,0,13.34-4.88,17.32-9.56v-23.99c0-8.16-1-9.06-3.98-10.35v-.9l8.46-3.68.7.6v37.23c0,9.16,1.19,10.85,3.98,11.55v1.09h-6.67c-1.79,0-2.49-.7-2.49-3.98v-5.77c-4.48,4.88-11.45,10.65-20.01,10.65-10.35,0-15.63-6.87-15.63-17.52Z"/>
    <path class="st2" d="M384.99,380.77l-.7-11.15.8-.2c3.98,9.36,11.05,14.14,20.21,14.14,6.27,0,11.45-3.29,11.45-10.05,0-8.06-9.06-10.05-15.73-12.34-8.26-2.79-15.43-4.98-15.43-14.24,0-8.16,7.47-13.24,16.82-13.24,7.37,0,12.84,1.69,15.63,2.89l.4,9.36-.8.2c-2.99-7.37-9.56-11.25-16.43-11.25-7.27,0-11.95,3.29-11.95,9.16,0,7.17,7.86,9.96,14.43,12.05,7.17,2.29,16.82,4.48,16.82,14.14s-7.86,14.83-17.22,14.93c-8.76.1-15.53-2.59-18.32-4.38Z"/>
    <path class="st2" d="M427.89,383.06c2.79-.7,3.98-2.39,3.98-11.55v-22.9c0-8.16-1-9.06-3.98-10.35v-.9l8.46-3.68.7.6v37.23c0,9.16,1.19,10.85,3.98,11.55v1.09h-13.14v-1.09ZM433.87,316.46c2.39,0,4.08,1.79,4.08,4.08s-1.79,4.08-4.08,4.08-4.08-1.79-4.08-4.08,1.79-4.08,4.08-4.08Z"/>
    <path class="st2" d="M449.69,380.77l-.7-11.15.8-.2c3.98,9.36,11.05,14.14,20.21,14.14,6.27,0,11.45-3.29,11.45-10.05,0-8.06-9.06-10.05-15.73-12.34-8.26-2.79-15.43-4.98-15.43-14.24,0-8.16,7.47-13.24,16.82-13.24,7.37,0,12.84,1.69,15.63,2.89l.4,9.36-.8.2c-2.99-7.37-9.56-11.25-16.43-11.25-7.27,0-11.95,3.29-11.95,9.16,0,7.17,7.86,9.96,14.43,12.05,7.17,2.29,16.82,4.48,16.82,14.14s-7.86,14.83-17.22,14.93c-8.76.1-15.53-2.59-18.32-4.38Z"/>
  </g>
  <g>
    <path class="st2" d="M250.45,403.74c0,.07,0,.13,0,.19s-.02.11-.03.15-.03.08-.05.12c-.02.04-.06.09-.12.15-.06.06-.19.16-.39.29-.2.13-.45.27-.76.4-.31.13-.66.25-1.05.34-.4.09-.83.14-1.31.14-.77,0-1.46-.13-2.08-.4-.62-.27-1.15-.66-1.59-1.17-.44-.52-.77-1.15-1.01-1.9-.24-.75-.35-1.62-.35-2.58s.13-1.88.38-2.67c.25-.79.6-1.46,1.06-2.01.46-.55,1-.97,1.64-1.26.64-.29,1.34-.44,2.12-.44.36,0,.72.03,1.06.1.34.07.66.16.95.26.29.11.55.23.78.37.23.14.39.25.47.33s.14.15.16.18c.02.04.04.08.05.13.01.05.02.1.03.16s0,.13,0,.2c0,.09,0,.17-.01.23,0,.07-.03.12-.05.17-.02.05-.05.08-.08.11-.03.03-.07.04-.11.04-.09,0-.21-.06-.37-.19-.16-.13-.37-.27-.63-.43-.26-.16-.58-.3-.96-.43-.38-.13-.83-.19-1.35-.19-.57,0-1.1.11-1.57.34-.48.23-.89.57-1.23,1.01-.34.45-.61,1-.8,1.65-.19.65-.29,1.41-.29,2.25s.09,1.53.26,2.16.43,1.16.76,1.59c.33.43.75.76,1.24.99s1.05.34,1.67.34c.51,0,.95-.06,1.33-.19.38-.13.71-.27.98-.43.27-.16.49-.3.66-.43s.31-.19.4-.19c.04,0,.07,0,.09.02.02.02.05.04.06.08s.03.1.04.17c0,.07.01.15.01.25Z"/>
    <path class="st2" d="M262.42,399.16c0,.97-.11,1.86-.33,2.64-.22.79-.56,1.46-1,2.02-.45.56-1.01.99-1.69,1.29s-1.47.45-2.38.45-1.68-.14-2.33-.43-1.19-.69-1.6-1.23-.73-1.18-.92-1.95c-.2-.77-.3-1.63-.3-2.59s.11-1.82.33-2.6c.22-.78.55-1.44,1-1.99.45-.55,1.01-.98,1.69-1.28.68-.3,1.47-.45,2.38-.45s1.65.14,2.3.42c.65.28,1.18.69,1.61,1.22.42.53.74,1.17.94,1.92.2.75.31,1.61.31,2.56ZM261.2,399.26c0-.72-.07-1.4-.2-2.03s-.36-1.18-.67-1.65c-.31-.47-.72-.84-1.24-1.1-.52-.27-1.15-.4-1.91-.4s-1.39.14-1.91.42c-.52.28-.94.66-1.26,1.13s-.56,1.02-.7,1.65c-.14.63-.21,1.29-.21,1.99,0,.74.06,1.43.19,2.07.13.64.35,1.19.66,1.66.31.47.72.84,1.24,1.11.52.27,1.16.4,1.93.4s1.41-.14,1.93-.43c.52-.29.94-.67,1.26-1.15.32-.48.55-1.04.69-1.67.14-.63.21-1.3.21-1.99Z"/>
    <path class="st2" d="M274,404.84c0,.11-.02.21-.05.28s-.08.14-.13.18c-.05.05-.11.08-.18.1-.07.02-.13.03-.18.03h-.24c-.13,0-.24-.02-.34-.05-.1-.03-.2-.09-.3-.17-.1-.08-.19-.18-.29-.32-.1-.13-.21-.3-.33-.51l-4.3-7.62c-.21-.37-.43-.75-.65-1.15-.22-.39-.42-.78-.62-1.15h0c0,.46,0,.93,0,1.41v9.31s0,.07-.03.1-.05.06-.09.08c-.04.02-.1.04-.17.05-.07.01-.17.02-.28.02-.11,0-.2,0-.27-.02-.08-.01-.14-.03-.18-.05-.04-.02-.08-.04-.09-.08-.02-.03-.03-.07-.03-.1v-11.42c0-.23.06-.38.18-.47.12-.08.24-.13.35-.13h.47c.15,0,.28.01.38.04.1.03.19.07.27.13.08.06.16.14.24.25.08.11.17.25.26.42l3.29,5.84c.21.36.4.71.59,1.05.19.34.37.67.54.99.18.32.35.64.52.96.17.31.34.63.51.95h0c0-.53,0-1.08,0-1.65v-8.75s0-.07.03-.1.05-.06.09-.08c.04-.02.1-.04.17-.05.07,0,.17-.01.28-.01.1,0,.19,0,.26.01.08,0,.14.03.18.05.04.02.08.05.1.08.02.03.03.07.03.1v11.42Z"/>
    <path class="st2" d="M283.74,402.1c0,.54-.1,1.02-.29,1.45-.19.43-.47.79-.82,1.09s-.77.53-1.25.68c-.48.16-1.01.24-1.58.24-.39,0-.76-.04-1.1-.11s-.65-.16-.92-.26c-.27-.1-.5-.2-.68-.31s-.31-.19-.38-.26-.12-.16-.15-.25-.05-.22-.05-.36c0-.11,0-.19.02-.26s.03-.13.05-.17.05-.07.08-.09.07-.02.11-.02c.09,0,.21.05.37.17s.37.23.62.36c.25.13.56.25.91.36.35.11.77.17,1.24.17.38,0,.74-.05,1.06-.16.32-.1.6-.25.83-.45.23-.2.41-.44.54-.72s.19-.61.19-.98-.08-.7-.25-.97c-.16-.27-.38-.51-.65-.71s-.57-.39-.91-.56c-.34-.17-.69-.33-1.04-.5-.36-.17-.7-.35-1.04-.54-.34-.2-.64-.42-.91-.68-.27-.26-.48-.57-.65-.92-.16-.35-.25-.77-.25-1.25s.08-.89.25-1.27c.17-.37.41-.69.72-.95s.68-.46,1.11-.6c.43-.14.9-.21,1.42-.21.26,0,.52.03.78.08.26.05.51.11.75.19.24.08.45.17.63.26.19.1.31.18.37.24.06.06.1.1.11.13.02.03.03.06.04.11s.02.1.03.16,0,.13,0,.22c0,.08,0,.16-.01.22,0,.07-.02.12-.04.17-.02.05-.04.08-.07.11-.03.02-.06.04-.1.04-.07,0-.17-.04-.32-.14-.14-.09-.32-.19-.53-.31s-.47-.21-.76-.31c-.3-.09-.63-.14-1.01-.14s-.69.05-.97.15c-.28.1-.51.24-.69.41-.18.17-.32.38-.41.61-.09.23-.14.48-.14.74,0,.38.08.7.25.97.16.27.38.51.65.72.27.21.58.39.92.56.34.17.69.33,1.05.5.35.17.7.35,1.05.54.34.19.65.42.92.68.27.26.49.57.65.92.16.35.25.76.25,1.24Z"/>
    <path class="st2" d="M295.05,400.91c0,.74-.1,1.4-.32,1.98-.21.58-.51,1.07-.9,1.46-.39.4-.86.7-1.41.9-.55.2-1.17.31-1.86.31-.62,0-1.2-.1-1.72-.29-.52-.2-.98-.48-1.36-.86-.38-.38-.68-.85-.89-1.41-.21-.56-.32-1.21-.32-1.95v-7.66s0-.07.03-.1c.02-.03.05-.06.1-.08.05-.02.1-.03.17-.05.07-.01.16-.02.27-.02.11,0,.2,0,.27.02.08.01.14.03.18.05.04.02.08.04.09.08.02.03.03.07.03.1v7.47c0,.61.07,1.14.22,1.6.15.46.36.84.64,1.15.28.3.62.53,1.02.69.4.15.85.23,1.35.23s.96-.07,1.36-.22.74-.37,1.01-.67c.28-.3.49-.68.64-1.13.15-.45.22-.98.22-1.58v-7.53s0-.07.03-.1c.02-.03.05-.06.09-.08.04-.02.1-.03.18-.05.08-.01.17-.02.27-.02s.2,0,.27.02c.08.01.13.03.18.05.04.02.08.04.09.08.02.03.03.07.03.1v7.52Z"/>
    <path class="st2" d="M304.71,404.87c0,.09,0,.16-.02.23s-.03.12-.06.17c-.02.05-.06.08-.09.1-.04.02-.08.03-.13.03h-5.29c-.11,0-.23-.04-.35-.13-.12-.08-.18-.24-.18-.47v-11.42s0-.07.03-.1c.02-.03.05-.06.09-.08.04-.02.1-.03.18-.05.08-.01.17-.02.27-.02.11,0,.21,0,.28.02.07.01.13.03.17.05.04.02.08.04.09.08.02.03.03.07.03.1v10.97h4.67c.05,0,.09.01.13.03.04.02.07.05.09.09.03.04.04.09.06.16.01.07.02.14.02.23Z"/>
    <path class="st2" d="M312.66,393.73c0,.08,0,.15-.02.22-.01.06-.03.12-.06.16-.03.04-.06.07-.09.09-.04.02-.08.03-.12.03h-3.64v10.99s0,.07-.03.1c-.02.03-.05.06-.09.08-.04.02-.1.04-.18.05-.08.01-.17.02-.27.02s-.2,0-.27-.02c-.08-.01-.14-.03-.18-.05-.04-.02-.08-.04-.09-.08-.02-.03-.03-.07-.03-.1v-10.99h-3.64c-.05,0-.09-.01-.13-.03-.03-.02-.06-.05-.09-.09-.03-.04-.04-.09-.06-.16-.01-.06-.02-.13-.02-.22,0-.09,0-.17.02-.23.01-.07.03-.12.06-.17.02-.04.05-.08.09-.1.03-.02.08-.03.13-.03h8.43s.08.01.12.03c.04.02.07.06.09.1.02.04.04.1.06.17.01.07.02.14.02.23Z"/>
    <path class="st2" d="M323.85,399.16c0,.97-.11,1.86-.33,2.64-.22.79-.56,1.46-1,2.02-.45.56-1.01.99-1.69,1.29s-1.47.45-2.38.45-1.68-.14-2.33-.43-1.18-.69-1.6-1.23c-.42-.53-.73-1.18-.92-1.95-.2-.77-.3-1.63-.3-2.59s.11-1.82.33-2.6c.22-.78.55-1.44,1-1.99.45-.55,1.01-.98,1.69-1.28s1.47-.45,2.38-.45,1.65.14,2.3.42,1.18.69,1.61,1.22c.42.53.74,1.17.94,1.92.2.75.31,1.61.31,2.56ZM322.62,399.26c0-.72-.07-1.4-.2-2.03-.14-.63-.36-1.18-.67-1.65-.31-.47-.72-.84-1.24-1.1s-1.15-.4-1.91-.4-1.39.14-1.91.42c-.52.28-.94.66-1.26,1.13-.32.47-.56,1.02-.7,1.65-.14.63-.21,1.29-.21,1.99,0,.74.06,1.43.19,2.07.13.64.35,1.19.66,1.66.31.47.72.84,1.24,1.11.52.27,1.16.4,1.93.4s1.41-.14,1.93-.43c.52-.29.94-.67,1.26-1.15.32-.48.55-1.04.69-1.67.14-.63.21-1.3.21-1.99Z"/>
    <path class="st2" d="M334.3,405.19s0,.08-.02.11c-.02.03-.05.06-.09.08-.04.02-.11.04-.18.05-.08.01-.18.02-.3.02-.11,0-.2,0-.27-.01-.07,0-.13-.03-.18-.06-.05-.03-.09-.07-.12-.11-.03-.05-.06-.11-.08-.18l-1.14-2.96c-.13-.33-.27-.65-.42-.94-.15-.3-.33-.55-.55-.77s-.47-.39-.77-.51-.66-.19-1.08-.19h-1.26v5.5s0,.07-.03.1-.05.06-.09.08c-.04.02-.1.04-.17.05-.07.01-.17.02-.28.02-.11,0-.2,0-.27-.02-.08-.01-.14-.03-.18-.05-.04-.02-.08-.04-.09-.08s-.03-.07-.03-.1v-11.42c0-.23.06-.38.18-.47.12-.08.24-.13.35-.13h2.29c.3,0,.55,0,.75.02.2.02.38.04.54.06.46.08.87.21,1.22.4s.63.41.86.67c.23.27.39.57.5.91.11.34.17.7.17,1.09s-.06.76-.17,1.08-.27.6-.48.84c-.21.24-.46.45-.74.63-.29.18-.61.32-.95.44.21.09.39.21.56.35.17.14.32.3.46.5.14.2.28.42.4.67.13.25.25.54.38.85l1.14,2.85c.08.22.13.37.16.45.02.08.03.14.03.18ZM332.28,396.47c0-.52-.12-.96-.35-1.33-.23-.36-.62-.62-1.17-.78-.18-.05-.38-.09-.59-.11-.21-.02-.49-.03-.84-.03h-1.51v4.48h1.75c.47,0,.88-.06,1.22-.17.34-.12.62-.28.84-.48.22-.2.39-.44.49-.71s.16-.56.16-.88Z"/>
    <path class="st2" d="M338.1,392.52c.04-.06.08-.12.12-.16s.1-.08.16-.1c.06-.02.13-.04.22-.05.08,0,.19-.01.31-.01s.22,0,.29.03.13.05.16.08c.03.04.04.08.03.12,0,.05-.04.1-.08.16l-1.64,2.21c-.04.06-.08.11-.12.15s-.07.06-.12.08-.1.03-.16.04c-.06,0-.14,0-.24,0s-.17,0-.23-.02-.1-.04-.12-.07c-.02-.03-.03-.06-.02-.11,0-.04.03-.09.07-.15l1.38-2.2ZM337.86,405.21s0,.07-.03.1c-.02.03-.05.06-.09.08-.04.02-.1.04-.17.05-.07.01-.17.02-.28.02-.11,0-.2,0-.27-.02-.07-.01-.13-.03-.17-.05-.04-.02-.07-.04-.09-.08-.02-.03-.02-.07-.02-.1v-8.53s0-.07.02-.1c.02-.03.04-.06.09-.08.04-.02.1-.04.17-.05s.16-.01.27-.01c.11,0,.21,0,.28.01s.13.03.17.05c.04.02.07.05.09.08.02.03.03.07.03.1v8.53Z"/>
    <path class="st2" d="M349.87,405.01c.04.09.06.17.05.23,0,.06-.03.11-.07.14s-.1.05-.19.06c-.08,0-.19.01-.33.01s-.24,0-.32-.01c-.08,0-.14-.02-.18-.04s-.08-.04-.1-.08c-.02-.03-.04-.07-.06-.11l-1.17-3.25h-5.36l-1.12,3.23s-.03.08-.06.11c-.03.03-.06.06-.1.08-.04.02-.11.04-.18.05-.08.01-.18.02-.3.02-.13,0-.24,0-.33-.02-.09-.01-.15-.04-.19-.07-.04-.03-.06-.08-.07-.13s.01-.13.05-.23l4.27-11.61s.05-.09.08-.13c.04-.04.09-.06.15-.08.06-.02.13-.03.22-.04s.18-.01.29-.01c.11,0,.21,0,.3.01.08,0,.16.02.22.04.06.02.11.04.14.08.04.03.06.08.08.13l4.27,11.61ZM344.81,394.43h0l-2.3,6.56h4.67l-2.36-6.56Z"/>
    <path class="st2" d="M363.48,396.7c0,.57-.1,1.08-.29,1.56-.19.47-.47.88-.83,1.22-.36.34-.79.6-1.31.79s-1.14.28-1.87.28h-1.58v4.67s0,.07-.03.1-.05.06-.09.08c-.04.02-.1.04-.17.05-.07.01-.17.02-.28.02-.11,0-.2,0-.27-.02-.08-.01-.14-.03-.18-.05-.04-.02-.08-.04-.09-.08s-.03-.07-.03-.1v-11.42c0-.23.06-.38.18-.47.12-.08.24-.13.35-.13h2.48c.25,0,.48.01.72.03.23.02.5.07.82.14s.63.21.95.41c.32.2.6.44.83.73s.4.61.52.98c.12.37.18.77.18,1.21ZM362.26,396.8c0-.53-.1-.98-.31-1.34-.21-.37-.46-.64-.76-.82s-.61-.29-.93-.34c-.32-.05-.63-.07-.92-.07h-1.74v5.3h1.66c.53,0,.98-.07,1.34-.2.36-.13.66-.32.91-.56.25-.24.43-.53.56-.86s.19-.7.19-1.1Z"/>
    <path class="st2" d="M373.42,405.01c.04.09.06.17.05.23,0,.06-.03.11-.07.14s-.1.05-.19.06c-.08,0-.19.01-.33.01s-.24,0-.32-.01c-.08,0-.14-.02-.18-.04s-.08-.04-.1-.08c-.02-.03-.04-.07-.06-.11l-1.17-3.25h-5.36l-1.12,3.23s-.03.08-.06.11c-.03.03-.06.06-.1.08-.04.02-.11.04-.18.05-.08.01-.18.02-.3.02-.13,0-.24,0-.33-.02-.09-.01-.15-.04-.19-.07-.04-.03-.06-.08-.07-.13s.01-.13.05-.23l4.27-11.61s.05-.09.08-.13c.04-.04.09-.06.15-.08.06-.02.13-.03.22-.04s.18-.01.29-.01c.11,0,.21,0,.3.01.08,0,.16.02.22.04.06.02.11.04.14.08.04.03.06.08.08.13l4.27,11.61ZM368.35,394.43h0l-2.3,6.56h4.67l-2.36-6.56Z"/>
    <path class="st2" d="M383.27,405.19s0,.08-.02.11c-.02.03-.05.06-.09.08-.04.02-.11.04-.18.05-.08.01-.18.02-.3.02-.11,0-.2,0-.27-.01-.07,0-.13-.03-.18-.06-.05-.03-.09-.07-.12-.11-.03-.05-.06-.11-.08-.18l-1.14-2.96c-.13-.33-.27-.65-.42-.94-.15-.3-.33-.55-.55-.77s-.47-.39-.77-.51-.66-.19-1.08-.19h-1.26v5.5s0,.07-.03.1-.05.06-.09.08c-.04.02-.1.04-.17.05-.07.01-.17.02-.28.02-.11,0-.2,0-.27-.02-.08-.01-.14-.03-.18-.05-.04-.02-.08-.04-.09-.08s-.03-.07-.03-.1v-11.42c0-.23.06-.38.18-.47.12-.08.24-.13.35-.13h2.29c.3,0,.55,0,.75.02.2.02.38.04.54.06.46.08.87.21,1.22.4s.63.41.86.67c.23.27.39.57.5.91.11.34.17.7.17,1.09s-.06.76-.17,1.08-.27.6-.48.84c-.21.24-.46.45-.74.63-.29.18-.61.32-.95.44.21.09.39.21.56.35.17.14.32.3.46.5.14.2.28.42.4.67.13.25.25.54.38.85l1.14,2.85c.08.22.13.37.16.45.02.08.03.14.03.18ZM381.24,396.47c0-.52-.12-.96-.35-1.33-.23-.36-.62-.62-1.17-.78-.18-.05-.38-.09-.59-.11-.21-.02-.49-.03-.84-.03h-1.51v4.48h1.75c.47,0,.88-.06,1.22-.17.34-.12.62-.28.84-.48.22-.2.39-.44.49-.71s.16-.56.16-.88Z"/>
    <path class="st2" d="M394.58,405.01c.04.09.06.17.05.23,0,.06-.03.11-.07.14s-.1.05-.19.06c-.08,0-.19.01-.33.01s-.24,0-.32-.01c-.08,0-.14-.02-.18-.04s-.08-.04-.1-.08c-.02-.03-.04-.07-.06-.11l-1.17-3.25h-5.36l-1.12,3.23s-.03.08-.06.11c-.03.03-.06.06-.1.08-.04.02-.11.04-.18.05-.08.01-.18.02-.3.02-.13,0-.24,0-.33-.02-.09-.01-.15-.04-.19-.07-.04-.03-.06-.08-.07-.13s.01-.13.05-.23l4.27-11.61s.05-.09.08-.13c.04-.04.09-.06.15-.08.06-.02.13-.03.22-.04s.18-.01.29-.01c.11,0,.21,0,.3.01.08,0,.16.02.22.04.06.02.11.04.14.08.04.03.06.08.08.13l4.27,11.61ZM389.51,394.43h0l-2.3,6.56h4.67l-2.36-6.56Z"/>
    <path class="st2" d="M407.7,404.89c0,.08,0,.15-.02.22-.01.06-.03.12-.06.16s-.06.08-.1.1c-.04.02-.08.03-.12.03h-5.71c-.11,0-.23-.04-.35-.13-.12-.08-.18-.24-.18-.47v-11.01c0-.23.06-.38.18-.47.12-.08.24-.13.35-.13h5.63s.08.01.12.03c.04.02.07.06.09.1s.04.1.06.17c.01.07.02.14.02.23,0,.08,0,.15-.02.22-.01.06-.03.12-.06.16s-.06.07-.09.09c-.04.02-.08.03-.12.03h-5.01v4.29h4.32c.05,0,.09.01.13.03.04.02.07.05.09.09s.04.09.06.16c.01.07.02.14.02.23,0,.08,0,.15-.02.21s-.03.11-.06.15c-.03.04-.06.07-.09.08-.04.02-.08.03-.13.03h-4.32v4.87h5.09s.08.01.12.03c.04.02.07.05.1.09s.05.09.06.16c.01.07.02.14.02.23Z"/>
    <path class="st2" d="M416.72,404.87c0,.09,0,.16-.02.23s-.03.12-.06.17-.06.08-.09.1c-.04.02-.08.03-.13.03h-5.29c-.11,0-.23-.04-.35-.13-.12-.08-.18-.24-.18-.47v-11.42s0-.07.03-.1c.02-.03.05-.06.09-.08.04-.02.1-.03.18-.05s.17-.02.27-.02c.11,0,.21,0,.28.02s.13.03.17.05c.04.02.08.04.09.08.02.03.03.07.03.1v10.97h4.67c.05,0,.09.01.13.03.04.02.07.05.09.09s.04.09.06.16c.01.07.02.14.02.23Z"/>
    <path class="st2" d="M429.6,404.89c0,.08,0,.15-.02.22-.01.06-.03.12-.06.16s-.06.08-.1.1c-.04.02-.08.03-.12.03h-5.71c-.11,0-.23-.04-.35-.13-.12-.08-.18-.24-.18-.47v-11.01c0-.23.06-.38.18-.47.12-.08.24-.13.35-.13h5.63s.08.01.12.03c.04.02.07.06.09.1s.04.1.06.17c.01.07.02.14.02.23,0,.08,0,.15-.02.22-.01.06-.03.12-.06.16s-.06.07-.09.09c-.04.02-.08.03-.12.03h-5.01v4.29h4.32c.05,0,.09.01.13.03.04.02.07.05.09.09s.04.09.06.16c.01.07.02.14.02.23,0,.08,0,.15-.02.21s-.03.11-.06.15c-.03.04-.06.07-.09.08-.04.02-.08.03-.13.03h-4.32v4.87h5.09s.08.01.12.03c.04.02.07.05.1.09s.05.09.06.16c.01.07.02.14.02.23Z"/>
    <path class="st2" d="M438.48,402.1c0,.54-.1,1.02-.29,1.45-.2.43-.47.79-.82,1.09-.35.3-.77.53-1.25.68-.48.16-1.01.24-1.58.24-.39,0-.76-.04-1.1-.11s-.65-.16-.92-.26c-.27-.1-.5-.2-.68-.31-.19-.1-.31-.19-.38-.26-.07-.07-.12-.16-.15-.25s-.05-.22-.05-.36c0-.11,0-.19.02-.26s.03-.13.05-.17c.02-.04.05-.07.08-.09s.07-.02.11-.02c.09,0,.21.05.37.17.16.11.37.23.62.36s.56.25.91.36c.36.11.77.17,1.24.17.38,0,.74-.05,1.06-.16.32-.1.6-.25.83-.45.23-.2.41-.44.54-.72.13-.29.19-.61.19-.98s-.08-.7-.25-.97c-.16-.27-.38-.51-.65-.71s-.57-.39-.91-.56c-.34-.17-.69-.33-1.04-.5-.35-.17-.7-.35-1.04-.54-.34-.2-.64-.42-.91-.68-.27-.26-.48-.57-.65-.92-.16-.35-.25-.77-.25-1.25s.08-.89.25-1.27.41-.69.72-.95c.31-.26.68-.46,1.11-.6.43-.14.9-.21,1.42-.21.26,0,.52.03.78.08.26.05.51.11.75.19.24.08.45.17.63.26s.31.18.37.24c.06.06.1.1.11.13.02.03.03.06.04.11s.02.1.03.16c0,.06,0,.13,0,.22,0,.08,0,.16-.01.22,0,.07-.02.12-.04.17-.02.05-.04.08-.07.11-.03.02-.06.04-.1.04-.07,0-.17-.04-.32-.14-.14-.09-.32-.19-.53-.31s-.47-.21-.76-.31c-.3-.09-.63-.14-1.01-.14s-.7.05-.97.15-.51.24-.69.41c-.18.17-.32.38-.41.61-.09.23-.14.48-.14.74,0,.38.08.7.25.97.16.27.38.51.65.72.27.21.58.39.92.56.34.17.69.33,1.05.5.35.17.7.35,1.05.54.34.19.65.42.92.68s.49.57.65.92c.16.35.25.76.25,1.24Z"/>
    <path class="st2" d="M448.07,396.7c0,.57-.1,1.08-.29,1.56-.19.47-.47.88-.83,1.22-.36.34-.79.6-1.31.79s-1.14.28-1.87.28h-1.58v4.67s0,.07-.03.1-.05.06-.09.08c-.04.02-.1.04-.17.05-.07.01-.17.02-.28.02-.11,0-.2,0-.27-.02-.08-.01-.14-.03-.18-.05-.04-.02-.08-.04-.09-.08s-.03-.07-.03-.1v-11.42c0-.23.06-.38.18-.47.12-.08.24-.13.35-.13h2.48c.25,0,.48.01.72.03.23.02.5.07.82.14s.63.21.95.41c.32.2.6.44.83.73s.4.61.52.98c.12.37.18.77.18,1.21ZM446.85,396.8c0-.53-.1-.98-.31-1.34-.21-.37-.46-.64-.76-.82s-.61-.29-.93-.34c-.32-.05-.63-.07-.92-.07h-1.74v5.3h1.66c.53,0,.98-.07,1.34-.2.36-.13.66-.32.91-.56.25-.24.43-.53.56-.86s.19-.7.19-1.1Z"/>
    <path class="st2" d="M452,392.52c.04-.06.08-.12.12-.16s.1-.08.16-.1c.06-.02.13-.04.22-.05.08,0,.19-.01.31-.01s.22,0,.29.03.13.05.16.08c.03.04.04.08.03.12,0,.05-.04.1-.08.16l-1.64,2.21c-.04.06-.08.11-.12.15s-.07.06-.12.08-.1.03-.16.04c-.06,0-.14,0-.24,0s-.17,0-.23-.02-.1-.04-.12-.07c-.02-.03-.03-.06-.02-.11,0-.04.03-.09.07-.15l1.38-2.2ZM451.77,405.21s0,.07-.03.1c-.02.03-.05.06-.09.08-.04.02-.1.04-.17.05-.07.01-.17.02-.28.02-.11,0-.2,0-.27-.02-.07-.01-.13-.03-.17-.05-.04-.02-.07-.04-.09-.08-.02-.03-.02-.07-.02-.1v-8.53s0-.07.02-.1c.02-.03.04-.06.09-.08.04-.02.1-.04.17-.05s.16-.01.27-.01c.11,0,.21,0,.28.01s.13.03.17.05c.04.02.07.05.09.08.02.03.03.07.03.1v8.53Z"/>
    <path class="st2" d="M462.75,405.19s0,.08-.02.11c-.02.03-.05.06-.09.08-.04.02-.11.04-.18.05-.08.01-.18.02-.3.02-.11,0-.2,0-.27-.01-.07,0-.13-.03-.18-.06-.05-.03-.09-.07-.12-.11-.03-.05-.06-.11-.08-.18l-1.14-2.96c-.13-.33-.27-.65-.42-.94-.15-.3-.33-.55-.55-.77s-.47-.39-.77-.51-.66-.19-1.08-.19h-1.26v5.5s0,.07-.03.1-.05.06-.09.08c-.04.02-.1.04-.17.05-.07.01-.17.02-.28.02-.11,0-.2,0-.27-.02-.08-.01-.14-.03-.18-.05-.04-.02-.08-.04-.09-.08s-.03-.07-.03-.1v-11.42c0-.23.06-.38.18-.47.12-.08.24-.13.35-.13h2.29c.3,0,.55,0,.75.02.2.02.38.04.54.06.46.08.87.21,1.22.4s.63.41.86.67c.23.27.39.57.5.91.11.34.17.7.17,1.09s-.06.76-.17,1.08-.27.6-.48.84c-.21.24-.46.45-.74.63-.29.18-.61.32-.95.44.21.09.39.21.56.35.17.14.32.3.46.5.14.2.28.42.4.67.13.25.25.54.38.85l1.14,2.85c.08.22.13.37.16.45.02.08.03.14.03.18ZM460.72,396.47c0-.52-.12-.96-.35-1.33-.23-.36-.62-.62-1.17-.78-.18-.05-.38-.09-.59-.11-.21-.02-.49-.03-.84-.03h-1.51v4.48h1.75c.47,0,.88-.06,1.22-.17.34-.12.62-.28.84-.48.22-.2.39-.44.49-.71s.16-.56.16-.88Z"/>
    <path class="st2" d="M466.54,405.21s0,.07-.03.1-.05.06-.09.08c-.04.02-.1.04-.17.05-.07.01-.17.02-.28.02-.11,0-.2,0-.27-.02-.08-.01-.14-.03-.18-.05-.04-.02-.08-.04-.09-.08s-.03-.07-.03-.1v-11.82s.01-.07.03-.1c.02-.03.06-.06.1-.08.05-.02.11-.03.18-.05s.16-.02.26-.02c.11,0,.21,0,.28.02s.13.03.17.05c.04.02.08.04.09.08.02.03.03.07.03.1v11.82Z"/>
    <path class="st2" d="M477.5,393.73c0,.08,0,.15-.02.22-.01.06-.03.12-.06.16-.03.04-.06.07-.09.09-.04.02-.08.03-.12.03h-3.64v10.99s0,.07-.03.1c-.02.03-.05.06-.09.08-.04.02-.1.04-.18.05-.08.01-.17.02-.27.02s-.2,0-.27-.02c-.08-.01-.14-.03-.18-.05-.04-.02-.08-.04-.09-.08-.02-.03-.03-.07-.03-.1v-10.99h-3.64s-.09-.01-.13-.03c-.03-.02-.06-.05-.09-.09-.02-.04-.04-.09-.06-.16-.01-.06-.02-.13-.02-.22,0-.09,0-.17.02-.23.01-.07.03-.12.06-.17.03-.04.06-.08.09-.1.03-.02.08-.03.13-.03h8.43s.08.01.12.03c.04.02.07.06.09.1.02.04.04.1.06.17.01.07.02.14.02.23Z"/>
    <path class="st2" d="M488.18,400.91c0,.74-.11,1.4-.32,1.98-.21.58-.51,1.07-.9,1.46-.39.4-.86.7-1.41.9-.55.2-1.17.31-1.86.31-.62,0-1.2-.1-1.72-.29-.52-.2-.98-.48-1.36-.86-.38-.38-.68-.85-.89-1.41-.21-.56-.32-1.21-.32-1.95v-7.66s0-.07.03-.1c.02-.03.05-.06.1-.08.05-.02.11-.03.17-.05s.16-.02.27-.02c.11,0,.2,0,.27.02s.13.03.18.05c.04.02.08.04.09.08.02.03.03.07.03.1v7.47c0,.61.07,1.14.22,1.6.15.46.36.84.64,1.15.28.3.62.53,1.02.69.4.15.85.23,1.35.23s.96-.07,1.36-.22.74-.37,1.01-.67.49-.68.64-1.13.22-.98.22-1.58v-7.53s0-.07.03-.1c.02-.03.05-.06.09-.08.04-.02.1-.03.18-.05.08-.01.17-.02.27-.02s.2,0,.27.02.13.03.18.05c.04.02.08.04.09.08.02.03.03.07.03.1v7.52Z"/>
  </g>
</svg>